<svg width="16" height="14" viewBox="0 0 16 14" fill="none" xmlns="http://www.w3.org/2000/svg">
<path d="M8 13.8201C7.91215 13.8197 7.82526 13.8018 7.7444 13.7674C7.66353 13.7331 7.59031 13.683 7.529 13.6201L1.635 7.7321C0.822115 6.91908 0.365492 5.81644 0.365585 4.66675C0.365679 3.51705 0.822482 2.41449 1.6355 1.6016C2.44852 0.788711 3.55117 0.332088 4.70086 0.332182C5.85055 0.332276 6.95311 0.789079 7.766 1.6021L8.001 1.8371L8.236 1.6021C8.84201 0.995535 9.61433 0.582352 10.4552 0.414828C11.2961 0.247304 12.1678 0.332968 12.96 0.660981C13.7522 0.988994 14.4293 1.54462 14.9057 2.25755C15.382 2.97048 15.6362 3.80868 15.636 4.6661C15.638 5.2358 15.5267 5.80022 15.3087 6.32655C15.0907 6.85289 14.7702 7.33066 14.366 7.7321L8.471 13.6241C8.40936 13.6863 8.33599 13.7356 8.25514 13.7693C8.17429 13.8029 8.08757 13.8202 8 13.8201ZM4.7 1.6661C4.10626 1.66563 3.52572 1.84136 3.03191 2.17104C2.5381 2.50071 2.15322 2.9695 1.926 3.51806C1.69878 4.06661 1.63945 4.67025 1.75552 5.25254C1.87159 5.83483 2.15783 6.36959 2.578 6.7891L8 12.2111L13.422 6.7891C13.9848 6.22631 14.301 5.463 14.301 4.6671C14.301 3.8712 13.9848 3.10789 13.422 2.5451C12.8592 1.98231 12.0959 1.66614 11.3 1.66614C10.5041 1.66614 9.74079 1.98231 9.178 2.5451L8.471 3.2511C8.40914 3.31311 8.33565 3.36231 8.25474 3.39588C8.17383 3.42945 8.0871 3.44673 7.9995 3.44673C7.91191 3.44673 7.82517 3.42945 7.74427 3.39588C7.66336 3.36231 7.58987 3.31311 7.528 3.2511L6.821 2.5451C6.54312 2.26566 6.21259 2.04409 5.84852 1.89321C5.48446 1.74234 5.09409 1.66514 4.7 1.6661Z" fill="#7F7F7F"/>
</svg>
