<svg width="14" height="14" viewBox="0 0 14 14" fill="none" xmlns="http://www.w3.org/2000/svg">
<path d="M1.00503 13.668C0.832899 13.6673 0.667309 13.602 0.54103 13.485C0.47462 13.423 0.421833 13.3479 0.386024 13.2644C0.350216 13.1809 0.332169 13.0909 0.33303 13V2.33301C0.33303 1.80257 0.543743 1.29387 0.918816 0.918794C1.29389 0.543722 1.8026 0.333008 2.33303 0.333008L11.667 0.333008C12.1975 0.333008 12.7062 0.543722 13.0812 0.918794C13.4563 1.29387 13.667 1.80257 13.667 2.33301V8.99901C13.667 9.52944 13.4563 10.0381 13.0812 10.4132C12.7062 10.7883 12.1975 10.999 11.667 10.999H3.94303L1.47103 13.471C1.41023 13.533 1.33774 13.5823 1.25775 13.6162C1.17777 13.65 1.09187 13.6676 1.00503 13.668ZM2.33303 1.66601C2.15613 1.66601 1.98648 1.73628 1.86139 1.86137C1.7363 1.98645 1.66603 2.15611 1.66603 2.33301V11.391L3.19503 9.86201C3.32051 9.73734 3.49014 9.66725 3.66703 9.66701H11.667C11.8438 9.66648 12.0132 9.59587 12.1381 9.47065C12.2629 9.34543 12.333 9.17583 12.333 8.99901V2.33301C12.333 2.15611 12.2628 1.98645 12.1377 1.86137C12.0126 1.73628 11.8429 1.66601 11.666 1.66601H2.33303Z" fill="#7F7F7F"/>
</svg>
